<svg
	width="32"
	height="32"
	viewBox="0 0 32 32"
	fill="none"
	xmlns="http://www.w3.org/2000/svg"
>
	<rect width="32" height="32" rx="10" fill="#2B4779" />
	<path
		d="M19.95 5.30005C21.5 5.80005 23.1 6.20005 24.75 6.40005H25.9L25.95 6.35005C26.65 6.35005 27.15 6.05005 27.8 5.90005C27.85 5.90005 28.05 5.85005 28.1 5.95005C28.15 6.10005 28.1 6.20005 27.95 6.30005C27.15 6.95005 26.15 7.40005 25.25 7.75005C24.95 7.80005 24.6 7.95005 24.3 8.05005C23.15 8.40005 21.85 8.60005 20.65 8.50005C18.3 8.40005 16.3 7.55005 14.25 7.65005C12.2 7.55005 10.3 8.30005 9.20004 9.85005C8.65004 10.65 8.20004 11.5 8.05004 12.4C8.10004 13.25 9.30004 13.55 9.75004 14.25C10 14.65 10.15 15.15 10.3 15.55C10.8 16.45 11.3 17.3 11.9 18.15C12.25 18.7 12.8 19.2 13.5 19.5C14.35 20.1 15.1 20.9001 15.6 21.7001C16.1 22.5 16.4 23.35 16.8 24.2001C17 24.7001 17.15 25.2001 17.3 25.7001C17.35 25.75 17.35 25.8 17.4 25.9C17.55 26.3 17.65 26.75 17.85 27.1C17.8 27.15 17.9 27.2001 17.9 27.25C17.9 27.5 18.15 27.8001 17.85 27.9501C17.4 27.5501 17.2 27 16.95 26.6C16.45 25.7001 15.85 24.9 15.25 24.05C14.85 23.55 14.45 23.05 14 22.55C12.15 20.5 9.45004 19.3 7.50004 17.35C7.35004 17.2 7.20004 17 7.10004 16.85C6.85004 16.5 6.70004 16.15 6.50004 15.8C5.90004 14.9 5.30004 13.95 4.90004 12.95C4.80004 12.55 4.65004 12.15 4.65004 11.7L4.60004 11.55C4.65004 11.1 3.55004 10.85 4.15004 10C4.55004 9.60005 6.00004 9.10005 6.50004 8.30005C6.50004 8.20005 6.55004 8.05005 6.45004 7.95005C6.45004 7.85005 6.35004 7.80005 6.30004 7.70005C6.00004 7.35005 5.25004 7.65005 5.30004 7.10005C5.40004 7.10005 5.30004 7.05005 5.35004 7.00005C5.30004 6.75005 5.30004 6.60005 5.35004 6.35005C5.50004 5.95005 5.65004 5.45005 5.60004 5.05005C5.65004 4.90005 5.80004 4.80005 5.95004 4.75005C6.25004 4.65005 6.55004 4.65005 6.85004 4.60005L6.90004 4.65005C7.60004 4.60005 8.45004 4.65005 8.95004 5.20005C9.15004 5.60005 9.00004 6.10005 8.90004 6.55005C8.85004 6.80005 8.60004 7.00005 8.65004 7.25005C8.75004 7.35005 8.95004 7.35005 9.05004 7.30005C10.1 6.65005 11.05 5.75005 11.85 4.85005C12.55 4.20005 13.65 3.95005 14.6 4.10005C16.45 4.20005 18.1 4.85005 19.95 5.30005Z"
		fill="#F1C931"
	/>
	<path
		d="M14.8501 8.85002C15.1501 9.20002 14.7501 9.55002 14.6501 9.85002C13.5001 11.6 13.1001 13.55 12.3001 15.4C12.2501 15.5 12.1501 15.5 12.1001 15.5C11.9001 15.35 11.9001 15.1 11.9001 14.9C12.0501 12.9 12.6001 11 13.4501 9.20002C13.6501 8.90002 14.0001 8.60002 14.4501 8.65002C14.6001 8.65002 14.7501 8.75002 14.8501 8.85002Z"
		fill="#F1C931"
	/>
	<path
		d="M17.9001 9.40003C18.0501 10.05 17.5501 10.6 17.3501 11.2C16.2001 13.45 14.8501 15.65 14.2001 18.05C14.1501 18.15 14.1001 18.25 14.0501 18.25C13.9501 18.3 13.8501 18.25 13.8501 18.15C13.6001 17.2 13.9001 16.2 14.1501 15.3C14.8001 13.3 15.5501 11.2 16.6501 9.35003C16.8001 9.25003 16.8001 9.15003 16.9501 9.15003C17.3001 9.10003 17.7001 9.10003 17.9001 9.40003Z"
		fill="#F1C931"
	/>
	<path
		d="M21.15 9.50009C21.45 9.75009 21.3 10.1501 21.2 10.4501C19.9 13.3501 17.75 15.9001 16.85 18.9501C16.6 19.6001 16.45 20.2501 16.25 20.9501C16.2 21.0501 16.05 21.0501 15.9 21.0501C15.8 20.7501 15.8 20.4001 15.8 20.1001C16.1 17.6501 16.65 15.2501 17.85 13.1001C18.4 12.0501 18.95 11.0501 19.5 10.0001C19.65 9.70009 19.95 9.45009 20.35 9.35009C20.65 9.30009 20.95 9.40009 21.15 9.50009Z"
		fill="#F1C931"
	/>
	<path
		d="M24.8 9.65011C25 10.0001 24.8 10.4001 24.7 10.7501C23.85 13.1001 22.3 15.0501 21.05 17.2001C19.95 18.9501 19.25 20.9001 18.55 22.8001C18.3 23.3501 18.2 24.0001 17.9 24.5501C17.9 24.6001 17.8 24.5501 17.75 24.6001C17.55 24.4501 17.6 24.2001 17.55 24.0001C17.7 21.6001 18.6 19.4501 19.5 17.3001C20.6 14.9001 22.05 12.6001 23 10.1001C23.15 9.80011 23.4 9.40011 23.85 9.30011C24.2 9.25011 24.55 9.40011 24.8 9.65011Z"
		fill="#F1C931"
	/>
</svg>
