<svg width="120" height="53" viewBox="0 0 120 53" fill="none" xmlns="http://www.w3.org/2000/svg">
    <path
        d="M16.6667 36.3846L19.7067 12.2914C19.9067 11.5372 20 10.7434 20 9.92308C20 4.44554 15.52 0 10 0C4.48 0 0 4.44554 0 9.92308C0 10.7434 0.093335 11.5372 0.293335 12.2914L3.33333 36.3846C3.33333 40.0363 6.32 43 10 43C13.68 43 16.6667 40.0363 16.6667 36.3846Z"
        fill="#344359" />
    <path
        d="M78.3333 16.6154L75.2933 40.7086C75.0933 41.4628 75 42.2566 75 43.0769C75 48.5545 79.48 53 85 53C90.52 53 95 48.5545 95 43.0769C95 42.2566 94.9067 41.4628 94.7067 40.7086L91.6667 16.6154C91.6667 12.9637 88.68 10 85 10C81.32 10 78.3333 12.9637 78.3333 16.6154Z"
        fill="#344359" />
    <path
        d="M66.6667 36.3846L69.7067 12.2914C69.9067 11.5372 70 10.7434 70 9.92308C70 4.44554 65.52 0 60 0C54.48 0 50 4.44554 50 9.92308C50 10.7434 50.0933 11.5372 50.2933 12.2914L53.3333 36.3846C53.3333 40.0363 56.32 43 60 43C63.68 43 66.6667 40.0363 66.6667 36.3846Z"
        fill="#344359" />
    <path
        d="M28.3333 16.6154L25.2933 40.7086C25.0933 41.4628 25 42.2566 25 43.0769C25 48.5545 29.48 53 35 53C40.52 53 45 48.5545 45 43.0769C45 42.2566 44.9067 41.4628 44.7067 40.7086L41.6667 16.6154C41.6667 12.9637 38.68 10 35 10C31.32 10 28.3333 12.9637 28.3333 16.6154Z"
        fill="#344359" />
    <path
        d="M116.667 36.3846L119.707 12.2914C119.907 11.5372 120 10.7434 120 9.92308C120 4.44554 115.52 0 110 0C104.48 0 100 4.44554 100 9.92308C100 10.7434 100.093 11.5372 100.293 12.2914L103.333 36.3846C103.333 40.0363 106.32 43 110 43C113.68 43 116.667 40.0363 116.667 36.3846Z"
        fill="#344359" />
</svg>