<svg width="238" height="198" xmlns="http://www.w3.org/2000/svg"
  fill="#E3FDFF" style="padding: 1em; border-radius: 29px">

  <g>
    <path id="svg_1"
      d="m199.246,70.3154c0,-0.1422 -0.016,-0.2844 -0.023,-0.4345c-7.727,-1.7064 -13.802,-8.2792 -15.382,-16.6294c-0.134,0 -0.268,-0.0237 -0.403,-0.0237c-0.134,0 -0.268,0.0158 -0.402,0.0237c-1.58,8.3423 -7.663,14.923 -15.382,16.6294c0,0.1422 -0.023,0.2844 -0.023,0.4345c0,0.1501 0.016,0.2844 0.023,0.4345c7.719,1.7063 13.802,8.2791 15.382,16.6293c0.134,0 0.268,0.0237 0.402,0.0237c0.135,0 0.269,-0.0158 0.403,-0.0237c1.572,-8.3502 7.655,-14.923 15.382,-16.6293c0,-0.1422 0.023,-0.2844 0.023,-0.4345z" />
    <path id="svg_2"
      d="m148.142,95.3897c0.347,-0.2765 0.758,-0.4424 1.192,-0.4819c14.394,-1.5009 10.104,-10.815 9.433,-12.1106c-0.047,-0.0948 -0.095,-0.1738 -0.158,-0.2528c-8.935,-12.9242 -14.038,-28.4713 -15.539,-33.4641c-0.3,-1.0112 -1.146,-1.7063 -2.125,-1.7774c-27.65,-2.0145 -41.8383,20.0342 -46.1753,36.6556c-3.4839,13.3667 0.7741,51.0415 2.7333,66.3835c0.2844,2.251 2.923,2.994 4.219,1.216c10.159,-13.912 23.699,-12.553 25.2,-12.355c0.103,0.016 0.206,0.023 0.308,0.016c22.183,-0.064 19.553,-12.048 18.66,-14.797c-0.11,-0.348 -0.3,-0.664 -0.537,-0.932c-7.126,-7.963 -3.681,-8.177 -3.681,-8.177c6.146,-1.366 7.552,-4.779 7.844,-6.643c0.111,-0.688 -0.071,-1.399 -0.474,-1.944c-5.048,-6.8333 -2.275,-10.2224 -0.9,-11.3363zm-7.434,-21.393c-4.803,0.0869 -15.065,-0.3634 -26.892,-4.7715c-1.809,-0.6715 -2.188,-3.2548 -0.655,-4.4951c4.898,-3.9658 14.836,-10.1593 25.88,-6.5806c0.821,0.2686 1.453,0.9875 1.651,1.8959l2.283,10.8071c0.34,1.5879 -0.758,3.1126 -2.267,3.1363l0,0.0079z" />
    <path id="svg_3"
      d="m237,95.2633c0,56.5717 -53.088,102.4857 -118.499,102.4857c-4.89,0 -9.717,-0.253 -14.457,-0.758c-0.569,-0.063 -1.019,-0.553 -1.066,-1.169l-2.821,-34.492c-0.079,-0.94 0.775,-1.627 1.588,-1.311c9.504,3.721 19.758,5.728 30.447,5.696c48.426,-0.15 88.139,-42.786 88.605,-95.131c0.111,-12.1738 -1.88,-23.8104 -5.585,-34.5543c13.722,16.7241 21.788,37.1612 21.788,59.2257l0,0.0079z" />
    <path id="svg_4"
      d="m82.4616,91.8585c-0.5056,3.4918 -0.7663,7.2679 -0.7663,10.9095c-4.3529,1.896 -9.0534,4.424 -13.0665,6.857c-7.9631,4.875 -15.3812,10.618 -22.4516,16.811c-9.2271,8.09 -17.7512,16.922 -25.8249,26.26c-4.5898,-5.846 -8.4924,-12.134 -11.62078,-18.755l3.52338,-3.507c0.0869,-0.063 0.1738,-0.134 0.2528,-0.206c1.0112,-0.932 2.0066,-1.888 3.081,-2.725c0.6794,-0.537 1.3666,-1.059 2.0381,-1.604c17.9092,-13.911 37.7459,-25.311 58.8703,-32.2077c1.9355,-0.6399 3.9421,-1.2482 5.9566,-1.817l0.0079,-0.0158z" />
    <path id="svg_5"
      d="m81.7032,118.766c0,-0.948 -0.9164,-1.572 -1.7064,-1.154c-1.8565,0.996 -3.6972,2.062 -5.5142,3.16c-7.3311,4.487 -14.2593,9.851 -20.8321,15.618c-8.8637,7.798 -17.3166,16.464 -25.0586,25.612c6.0988,6.146 13.027,11.66 20.6347,16.408c0.0474,-0.324 0.2212,-0.6 0.3713,-0.885c0.1975,-0.363 0.2686,-0.774 0.4108,-1.169c2.6938,-8.611 8.3028,-33.148 31.26,-53.332l0.4424,-0.988l0,-3.27l-0.0079,0z" />
    <path id="svg_6"
      d="m97.6057,56.9329c-0.2133,0.2923 -0.395,0.5688 -0.6636,0.9401l-0.9874,0.4898c-8.8743,-0.395 -13.3114,-0.5899 -13.3114,-0.5846c-13.9513,0 -27.9974,2.1092 -41.6248,4.8584c-10.1119,2.1567 -19.734,5.8934 -29.4114,9.393c-2.70969,1.0033 -6.12246,2.3305 -9.41673,3.5945c2.56748,-11.4549 7.34694,-22.2146 13.92753,-31.9631c0.2686,-0.0632 0.5451,-0.1027 0.8216,-0.1106c0.8532,-0.1343 2.6386,-0.3476 3.4918,-0.4266c12.3397,-0.6399 25.027,0.0553 37.2245,0.6715c4.7636,0.3476 9.8591,0.8216 14.5438,1.6906c0,0 12.8689,2.0856 25.0585,9.5589c0.6241,0.3792 0.7821,1.2877 0.3397,1.9039l0.0079,-0.0158z" />
    <path id="svg_7"
      d="m83.9073,78.3575l-0.3476,0.0632l-0.316,0.0474c-1.1139,0.2923 -2.5912,0.6557 -2.5912,0.6557c-26.5438,7.339 -51.2074,21.2592 -73.09017,38.8672c-0.9796,0.769 -2.23305,1.788 -3.76037,3.058c-2.50428,-8.295 -3.79197,-16.819 -3.79197,-25.7777c0,-1.7301 0.0711,-3.4365 0.1659,-5.1508c4.47136,-1.975 10.88611,-4.266 15.30221,-5.9723c7.8841,-2.9072 15.8156,-5.8144 23.8183,-8.0027c8.0342,-1.896 16.3449,-3.2863 24.3791,-4.337c6.4385,-0.8216 12.8927,-1.1692 19.347,-1.185c0.4187,0 2.2672,0.0158 4.0289,0.1896c0.8058,0.079 1.2956,1.0191 0.9401,1.8091l0,0.0158c-0.6873,1.5483 -1.3272,3.1204 -1.9039,4.7241c-0.1501,0.4266 -0.5056,0.7347 -0.9243,0.8058l-1.2481,0.1975l-0.0079,-0.0079z" />
    <path id="svg_8"
      d="m137.113,33.8651c0.861,-0.1264 1.288,-1.185 0.814,-1.975c-10.941,-18.2251 -29.585,-30.54114 -50.9546,-31.56813c-0.9559,-0.0395 -1.9276,-0.0711 -2.8993,-0.0711l-0.1106,0c-1.0032,0 -1.9986,0.0237 -2.9861,0.0948c-1.2166,0.0553 -2.4253,0.158 -3.6261,0.2923c-5.0954,0.56879 -10.0645,2.07768 -14.765,4.26596c-0.2765,0.1264 -0.553,0.26069 -0.8295,0.38709c6.6281,1.09809 13.1455,2.84398 19.5129,5.11128c7.4575,2.212 28.4243,9.3061 45.3933,25.3588l1.098,0.2607c3.025,-0.9638 6.154,-1.6906 9.353,-2.1567z" />
    <path id="svg_9"
      d="m106.833,47.5003c1.201,-0.9321 3.958,-3.0414 6.193,-4.5582c0.719,-0.4898 0.751,-1.5958 0.064,-2.133c-8.193,-6.3989 -25.7384,-14.2278 -31.4105,-16.6767c-10.0882,-4.0053 -20.682,-6.8256 -31.3627,-7.1653c-4.8348,-0.1106 -9.5827,1.422 -13.5405,4.424c-3.3812,2.5675 -6.32,5.1428 -9.7011,8.6899c10.4516,0 21.867,-0.4029 31.3548,0.9164c18.3673,2.5517 30.4542,6.6122 47.147,16.5662l1.264,-0.0711l-0.008,0.0078z" />
    <path id="svg_10"
      d="m60.0258,184.327c0.0395,-0.403 1.1059,-3.507 1.2086,-3.887c2.5675,-8.216 5.4826,-16.582 8.7927,-24.41c2.7728,-6.376 5.6958,-12.798 9.5352,-18.305c0.6873,-0.987 2.1409,-0.474 2.1409,0.759l0,54.209c-7.8842,-2.228 -14.607,-4.85 -21.6695,-8.374l-0.0079,0.008z" />
  </g>
</svg>
