<svg width="237" height="311" viewBox="0 0 237 311" fill="#E3FDFF"
  xmlns="http://www.w3.org/2000/svg">
  <path
    d="M199.246 70.3154C199.246 70.1732 199.23 70.031 199.223 69.8809C191.496 68.1745 185.421 61.6017 183.841 53.2515C183.707 53.2515 183.573 53.2278 183.438 53.2278C183.304 53.2278 183.17 53.2436 183.036 53.2515C181.456 61.5938 175.373 68.1745 167.654 69.8809C167.654 70.0231 167.631 70.1653 167.631 70.3154C167.631 70.4655 167.647 70.5998 167.654 70.7499C175.373 72.4562 181.456 79.029 183.036 87.3792C183.17 87.3792 183.304 87.4029 183.438 87.4029C183.573 87.4029 183.707 87.3871 183.841 87.3792C185.413 79.029 191.496 72.4562 199.223 70.7499C199.223 70.6077 199.246 70.4655 199.246 70.3154Z" />
  <path
    d="M148.142 95.3897C148.489 95.1132 148.9 94.9473 149.334 94.9078C163.728 93.4069 159.438 84.0928 158.767 82.7972C158.72 82.7024 158.672 82.6234 158.609 82.5444C149.674 69.6202 144.571 54.0731 143.07 49.0803C142.77 48.0691 141.924 47.374 140.945 47.3029C113.295 45.2884 99.1067 67.3371 94.7697 83.9585C91.2858 97.3252 95.5438 135 97.503 150.342C97.7874 152.593 100.426 153.336 101.722 151.558C111.881 137.646 125.421 139.005 126.922 139.203C127.025 139.219 127.128 139.226 127.23 139.219C149.413 139.155 146.783 127.171 145.89 124.422C145.78 124.074 145.59 123.758 145.353 123.49C138.227 115.527 141.672 115.313 141.672 115.313C147.818 113.947 149.224 110.534 149.516 108.67C149.627 107.982 149.445 107.271 149.042 106.726C143.994 99.8927 146.767 96.5036 148.142 95.3897ZM140.708 73.9967C135.905 74.0836 125.643 73.6333 113.816 69.2252C112.007 68.5537 111.628 65.9704 113.161 64.7301C118.059 60.7643 127.997 54.5708 139.041 58.1495C139.862 58.4181 140.494 59.137 140.692 60.0454L142.975 70.8525C143.315 72.4404 142.217 73.9651 140.708 73.9888V73.9967Z" />
  <path
    d="M237 95.2633C237 151.835 183.912 197.749 118.501 197.749C113.611 197.749 108.784 197.496 104.044 196.991C103.475 196.928 103.025 196.438 102.978 195.822L100.157 161.33C100.078 160.39 100.932 159.703 101.745 160.019C111.249 163.74 121.503 165.747 132.192 165.715C180.618 165.565 220.331 122.929 220.797 70.584C220.908 58.4102 218.917 46.7736 215.212 36.0297C228.934 52.7538 237 73.1909 237 95.2554V95.2633Z" />
  <path
    d="M82.4616 91.8585C81.956 95.3503 81.6953 99.1264 81.6953 102.768C77.3424 104.664 72.6419 107.192 68.6288 109.625C60.6657 114.5 53.2476 120.243 46.1772 126.436C36.9501 134.526 28.426 143.358 20.3523 152.696C15.7625 146.85 11.8599 140.562 8.73152 133.941L12.2549 130.434C12.3418 130.371 12.4287 130.3 12.5077 130.228C13.5189 129.296 14.5143 128.34 15.5887 127.503C16.2681 126.966 16.9553 126.444 17.6268 125.899C35.536 111.988 55.3727 100.588 76.4971 93.6913C78.4326 93.0514 80.4392 92.4431 82.4537 91.8743L82.4616 91.8585Z" />
  <path
    d="M81.7032 118.766C81.7032 117.818 80.7868 117.194 79.9968 117.612C78.1403 118.608 76.2996 119.674 74.4826 120.772C67.1515 125.259 60.2233 130.623 53.6505 136.39C44.7868 144.188 36.3339 152.854 28.5919 162.002C34.6907 168.148 41.6189 173.662 49.2266 178.41C49.274 178.086 49.4478 177.81 49.5979 177.525C49.7954 177.162 49.8665 176.751 50.0087 176.356C52.7025 167.745 58.3115 143.208 81.2687 123.024L81.7111 122.036V118.766H81.7032Z" />
  <path
    d="M97.6057 56.9329C97.3924 57.2252 97.2107 57.5017 96.9421 57.873L95.9547 58.3628C87.0804 57.9678 82.6433 57.7729 82.6433 57.7782C68.692 57.7782 54.6459 59.8874 41.0185 62.6366C30.9066 64.7933 21.2845 68.53 11.6071 72.0296C8.89741 73.0329 5.48464 74.3601 2.19037 75.6241C4.75785 64.1692 9.53731 53.4095 16.1179 43.661C16.3865 43.5978 16.663 43.5583 16.9395 43.5504C17.7927 43.4161 19.5781 43.2028 20.4313 43.1238C32.771 42.4839 45.4583 43.1791 57.6558 43.7953C62.4194 44.1429 67.5149 44.6169 72.1996 45.4859C72.1996 45.4859 85.0685 47.5715 97.2581 55.0448C97.8822 55.424 98.0402 56.3325 97.5978 56.9487L97.6057 56.9329Z" />
  <path
    d="M83.9073 78.3575L83.5597 78.4207L83.2437 78.4681C82.1298 78.7604 80.6525 79.1238 80.6525 79.1238C54.1087 86.4628 29.4451 100.383 7.56233 117.991C6.58273 118.76 5.32928 119.779 3.80196 121.049C1.29768 112.754 0.00999451 104.23 0.00999451 95.2713C0.00999451 93.5412 0.0810932 91.8348 0.175892 90.1205C4.64725 88.1455 11.062 85.8545 15.4781 84.1482C23.3622 81.241 31.2937 78.3338 39.2964 76.1455C47.3306 74.2495 55.6413 72.8592 63.6755 71.8085C70.114 70.9869 76.5682 70.6393 83.0225 70.6235C83.4412 70.6235 85.2897 70.6393 87.0514 70.8131C87.8572 70.8921 88.347 71.8322 87.9915 72.6222V72.638C87.3042 74.1863 86.6643 75.7584 86.0876 77.3621C85.9375 77.7887 85.582 78.0968 85.1633 78.1679L83.9152 78.3654L83.9073 78.3575Z" />
  <path
    d="M137.113 33.8651C137.974 33.7387 138.401 32.6801 137.927 31.8901C126.986 13.665 108.342 1.34896 86.9724 0.321966C86.0165 0.282467 85.0448 0.25087 84.0731 0.25087H83.9625C82.9593 0.25087 81.9639 0.274572 80.9764 0.345671C79.7598 0.400971 78.5511 0.503666 77.3503 0.637965C72.2549 1.20676 67.2858 2.71565 62.5853 4.90393C62.3088 5.03033 62.0323 5.16462 61.7558 5.29102C68.3839 6.38911 74.9013 8.135 81.2687 10.4023C88.7262 12.6143 109.693 19.7084 126.662 35.7611L127.76 36.0218C130.785 35.058 133.914 34.3312 137.113 33.8651Z" />
  <path
    d="M106.833 47.5003C108.034 46.5682 110.791 44.4589 113.026 42.9421C113.745 42.4523 113.777 41.3463 113.09 40.8091C104.897 34.4102 87.3516 26.5813 81.6795 24.1324C71.5913 20.1271 60.9975 17.3068 50.3168 16.9671C45.482 16.8565 40.7341 18.3891 36.7763 21.3911C33.3951 23.9586 30.4563 26.5339 27.0752 30.081C37.5268 30.081 48.9422 29.6781 58.43 30.9974C76.7973 33.5491 88.8842 37.6096 105.577 47.5636L106.841 47.4925L106.833 47.5003Z" />
  <path
    d="M60.0258 184.327C60.0653 183.924 61.1317 180.82 61.2344 180.44C63.8019 172.224 66.717 163.858 70.0271 156.03C72.7999 149.654 75.7229 143.232 79.5623 137.725C80.2496 136.738 81.7032 137.251 81.7032 138.484V192.693C73.819 190.465 67.0962 187.843 60.0337 184.319L60.0258 184.327Z" />
  <path
    d="M24.32 284.016L42.88 310H7.04V265.456H42.88L24.32 284.016ZM22.656 285.68L9.408 298.928V307.632H38.336L22.656 285.68ZM71.055 264.496C74.383 264.496 77.455 265.328 80.271 266.992C83.087 268.613 85.3057 270.832 86.927 273.648C88.591 276.464 89.423 279.536 89.423 282.864V292.592C89.423 295.92 88.591 298.992 86.927 301.808C85.3057 304.624 83.087 306.864 80.271 308.528C77.455 310.149 74.383 310.96 71.055 310.96C67.727 310.96 64.655 310.149 61.839 308.528C59.023 306.864 56.783 304.624 55.119 301.808C53.4977 298.992 52.687 295.92 52.687 292.592V282.864C52.687 279.536 53.4977 276.464 55.119 273.648C56.783 270.832 59.023 268.613 61.839 266.992C64.655 265.328 67.727 264.496 71.055 264.496ZM55.055 292.592C55.055 295.493 55.759 298.181 57.167 300.656C58.6177 303.088 60.559 305.029 62.991 306.48C65.4657 307.888 68.1537 308.592 71.055 308.592C73.9563 308.592 76.623 307.888 79.055 306.48C81.5297 305.029 83.471 303.088 84.879 300.656C86.3297 298.181 87.055 295.493 87.055 292.592V282.864C87.055 279.963 86.3297 277.296 84.879 274.864C83.471 272.389 81.5297 270.448 79.055 269.04C76.623 267.589 73.9563 266.864 71.055 266.864C68.1537 266.864 65.4657 267.589 62.991 269.04C60.559 270.448 58.6177 272.389 57.167 274.864C55.759 277.296 55.055 279.963 55.055 282.864V292.592ZM101.022 310V265.456H103.518L134.622 295.664V265.456H136.99V310H134.622V298.992L103.39 268.528V310H101.022ZM166.765 288.688C163.138 287.963 160.173 287.173 157.869 286.32C155.608 285.424 153.816 284.229 152.493 282.736C151.213 281.2 150.573 279.237 150.573 276.848C150.573 274.373 151.213 272.197 152.493 270.32C153.816 268.443 155.65 266.992 157.997 265.968C160.386 264.944 163.138 264.432 166.253 264.432C169.24 264.432 171.97 265.072 174.445 266.352C176.962 267.589 178.946 269.339 180.397 271.6C181.848 273.861 182.573 276.443 182.573 279.344H180.205C180.205 276.827 179.586 274.608 178.349 272.688C177.112 270.768 175.426 269.296 173.293 268.272C171.16 267.205 168.792 266.672 166.189 266.672C163.885 266.672 161.73 267.035 159.725 267.76C157.72 268.485 156.077 269.595 154.797 271.088C153.56 272.581 152.941 274.459 152.941 276.72C152.941 278.768 153.538 280.411 154.733 281.648C155.928 282.843 157.485 283.76 159.405 284.4C161.325 285.04 164.013 285.723 167.469 286.448C170.968 287.173 173.677 287.877 175.597 288.56C177.56 289.2 179.202 290.288 180.525 291.824C181.89 293.36 182.573 295.515 182.573 298.288C182.573 301.061 181.826 303.408 180.333 305.328C178.882 307.205 176.941 308.613 174.509 309.552C172.077 310.491 169.432 310.96 166.573 310.96C163.032 310.96 159.917 310.299 157.229 308.976C154.541 307.653 152.472 305.797 151.021 303.408C149.613 300.976 148.909 298.203 148.909 295.088H151.277C151.277 297.819 151.874 300.208 153.069 302.256C154.306 304.304 156.077 305.904 158.381 307.056C160.685 308.165 163.416 308.72 166.573 308.72C170.498 308.72 173.741 307.781 176.301 305.904C178.904 304.027 180.205 301.467 180.205 298.224C180.205 296.005 179.65 294.299 178.541 293.104C177.432 291.909 176.024 291.056 174.317 290.544C172.653 289.989 170.136 289.371 166.765 288.688ZM195.196 265.456H197.564V292.976C197.564 295.792 198.268 298.395 199.676 300.784C201.084 303.173 202.983 305.072 205.372 306.48C207.761 307.888 210.364 308.592 213.18 308.592C215.996 308.592 218.599 307.888 220.988 306.48C223.377 305.072 225.276 303.173 226.684 300.784C228.092 298.395 228.796 295.792 228.796 292.976V265.456H231.164V292.976C231.164 296.219 230.353 299.227 228.732 302C227.111 304.731 224.913 306.907 222.14 308.528C219.409 310.149 216.423 310.96 213.18 310.96C209.937 310.96 206.929 310.149 204.156 308.528C201.425 306.907 199.249 304.731 197.628 302C196.007 299.227 195.196 296.219 195.196 292.976V265.456Z" />
</svg>
